<svg xmlns="http://www.w3.org/2000/svg" width="35" height="24" viewBox="0 0 35 24" fill="none">
  <rect x="0.819824" y="0.5" width="33" height="23" rx="3.5" fill="#F2F2F2"/>
  <rect x="0.819824" y="0.5" width="33" height="23" rx="3.5" stroke="#F2F2F2"/>
  <path d="M22.3021 11.9543C22.8334 11.9658 23.3676 11.9308 23.8968 11.9725C24.4326 12.0725 24.5618 12.8837 24.0857 13.1494C23.7609 13.3244 23.375 13.2146 23.0229 13.2454H22.3021V11.9543ZM24.204 10.4929C24.322 10.9095 23.9204 11.2836 23.5191 11.2262H22.3021C22.3106 10.8333 22.2854 10.4069 22.3145 10.0347C22.802 10.0484 23.294 10.0067 23.7788 10.0565C23.987 10.1088 24.1613 10.28 24.204 10.4929ZM27.1329 4.31454C27.1555 5.11018 27.1362 5.94788 27.1427 6.75965C27.1412 10.0601 27.1458 13.3604 27.1401 16.6609C27.1187 17.8978 26.0225 18.9726 24.7942 18.9973C23.5646 19.0023 22.3349 18.9981 21.1052 18.9994V14.0099C22.445 14.003 23.7855 14.024 25.1248 13.9995C25.7461 13.9605 26.4266 13.5505 26.4555 12.8668C26.5287 12.1802 25.8813 11.7052 25.2667 11.6302C25.0304 11.6241 25.0373 11.5613 25.2667 11.5339C25.8529 11.4072 26.3132 10.8005 26.1408 10.1928C25.9938 9.55374 25.2874 9.30638 24.6998 9.3076C23.5018 9.29946 22.3036 9.30647 21.1055 9.3041C21.1132 8.37262 21.0893 7.44014 21.1184 6.50934C21.2133 5.29476 22.3371 4.29313 23.5481 4.31486C24.7432 4.31468 25.9381 4.31468 27.1329 4.31463V4.31454Z" fill="url(#paint0_linear_17_1380)"/>
  <path d="M7.56653 6.63512C7.59713 5.40017 8.69801 4.33421 9.92477 4.31616C11.1498 4.31239 12.3749 4.31562 13.5999 4.31453C13.5965 8.44639 13.6066 12.5787 13.5949 16.7103C13.5477 17.9303 12.4588 18.9759 11.2454 18.9975C10.0181 19.002 8.79066 18.9982 7.56331 18.9994V13.8417C8.75547 14.1233 10.0056 14.2432 11.2219 14.0564C11.9489 13.9394 12.7443 13.5824 12.9904 12.8282C13.1715 12.183 13.0695 11.504 13.0965 10.8419V9.30408H10.9917C10.9823 10.3211 11.0111 11.3399 10.9765 12.3558C10.9198 12.9801 10.3014 13.3768 9.71255 13.3557C8.98224 13.3634 7.53503 12.8264 7.53503 12.8264C7.53139 10.9209 7.55621 8.5345 7.56653 6.6353V6.63512Z" fill="url(#paint1_linear_17_1380)"/>
  <path d="M14.3847 9.92439C14.2739 9.9479 14.3624 9.54701 14.3341 9.39494C14.3417 8.4334 14.3183 7.47083 14.347 6.50998C14.4416 5.29026 15.574 4.28613 16.79 4.31468H20.371C20.3676 8.44654 20.3776 12.5789 20.3659 16.7105C20.3187 17.9304 19.2297 18.976 18.0163 18.9977C16.789 19.0023 15.5615 18.9984 14.3341 18.9996V13.3486C15.1723 14.0364 16.3117 14.1435 17.356 14.1453C18.1433 14.145 18.9261 14.0237 19.6906 13.8421V12.8068C18.829 13.2362 17.8161 13.509 16.8609 13.2623C16.1946 13.0965 15.711 12.4525 15.7217 11.7649C15.6446 11.0498 16.0637 10.2949 16.7664 10.0823C17.6389 9.80915 18.5898 10.018 19.4076 10.3732C19.5828 10.4649 19.7607 10.5787 19.6906 10.2858V9.47209C18.3228 9.14667 16.8672 9.02692 15.4931 9.38094C15.0953 9.49314 14.7078 9.6633 14.3847 9.92448V9.92439Z" fill="url(#paint2_linear_17_1380)"/>
  <defs>
    <linearGradient id="paint0_linear_17_1380" x1="21.064" y1="11.343" x2="27.1046" y2="11.343" gradientUnits="userSpaceOnUse">
      <stop stop-color="#58B03A"/>
      <stop offset="1" stop-color="#55B330"/>
    </linearGradient>
    <linearGradient id="paint1_linear_17_1380" x1="7.43487" y1="11.7976" x2="13.5009" y2="11.7976" gradientUnits="userSpaceOnUse">
      <stop stop-color="#0F6EB6"/>
      <stop offset="1" stop-color="#006DBA"/>
    </linearGradient>
    <linearGradient id="paint2_linear_17_1380" x1="14.3252" y1="11.4854" x2="20.3699" y2="11.4854" gradientUnits="userSpaceOnUse">
      <stop stop-color="#DE0D3D"/>
      <stop offset="1" stop-color="#E30138"/>
    </linearGradient>
  </defs>
</svg>