<svg xmlns="http://www.w3.org/2000/svg" width="35" height="24" viewBox="0 0 35 24" fill="none">
<rect x="0.819824" y="0.5" width="33" height="23" rx="3.5" fill="#F2F2F2"/>
<rect x="0.819824" y="0.5" width="33" height="23" rx="3.5" stroke="#F2F2F2"/>
<path fill-rule="evenodd" clip-rule="evenodd" d="M17.4988 16.8294C16.3148 17.8275 14.7788 18.43 13.1005 18.43C9.35564 18.43 6.31982 15.4303 6.31982 11.73C6.31982 8.02966 9.35564 5.02997 13.1005 5.02997C14.7788 5.02997 16.3148 5.63247 17.4988 6.63051C18.6828 5.63247 20.2188 5.02997 21.8971 5.02997C25.642 5.02997 28.6778 8.02966 28.6778 11.73C28.6778 15.4303 25.642 18.43 21.8971 18.43C20.2188 18.43 18.6828 17.8275 17.4988 16.8294Z" fill="#ED0006"/>
<path fill-rule="evenodd" clip-rule="evenodd" d="M17.499 16.8294C18.957 15.6005 19.8814 13.7719 19.8814 11.73C19.8814 9.68801 18.957 7.85941 17.499 6.63051C18.6831 5.63247 20.219 5.02997 21.8973 5.02997C25.6422 5.02997 28.678 8.02966 28.678 11.73C28.678 15.4303 25.6422 18.43 21.8973 18.43C20.219 18.43 18.6831 17.8275 17.499 16.8294Z" fill="#F9A000"/>
<path fill-rule="evenodd" clip-rule="evenodd" d="M17.4986 16.8294C18.9565 15.6005 19.881 13.7719 19.881 11.73C19.881 9.68805 18.9565 7.85946 17.4986 6.63055C16.0407 7.85946 15.1162 9.68805 15.1162 11.73C15.1162 13.7719 16.0407 15.6005 17.4986 16.8294Z" fill="#FF5E00"/>
</svg>