<svg xmlns="http://www.w3.org/2000/svg" width="154" height="29" viewBox="0 0 154 29" fill="none">
  <path d="M18.7633 28.1463C17.4784 28.1286 16.2011 27.9405 14.9633 27.5865C12.6411 26.9363 10.3444 25.7661 8.97441 24.533C6.67017 22.461 5.69547 19.5072 6.55039 17.1837C7.06693 15.7773 8.68844 13.4201 13.7371 13.4201H21.1723C20.937 12.4976 20.6562 11.588 20.3309 10.6947C18.5237 5.76399 15.9096 3.26412 12.5603 3.26412C10.5016 3.26412 8.78126 4.36376 7.30049 6.62592C6.00988 8.59975 4.95733 11.3956 4.17427 14.9353C2.8073 21.1191 2.7609 27.4178 2.7609 27.4807L0 27.4685C0 27.2001 0.0449118 20.8323 1.47327 14.351C2.32969 10.4616 3.5155 7.33907 4.99626 5.06771C7.00105 2.00038 9.54634 0.436035 12.5603 0.436035C17.1148 0.436035 20.6947 3.63987 22.9151 9.70092C23.3546 10.917 23.7226 12.1589 24.0171 13.4201H28.8187V16.2481H24.5815C24.9089 18.1776 25.0881 20.1303 25.1176 22.0883C25.1176 24.6542 24.0126 26.5789 22.0063 27.5099C20.9897 27.9792 19.8548 28.1463 18.7633 28.1463ZM13.7416 16.2481C11.2637 16.2481 9.58378 16.9521 9.13311 18.1806C8.68245 19.409 9.37117 21.1267 10.7935 22.4074C11.8551 23.3598 13.776 24.3229 15.691 24.8612C17.8081 25.4532 19.6946 25.4747 20.8669 24.9364C21.5062 24.6404 22.3567 24.0162 22.3567 22.0914C22.3188 20.1305 22.123 18.1761 21.7712 16.2481H13.7416Z" fill="white"/>
  <path d="M46.6419 23.5195C45.8249 23.5195 45.089 23.3723 44.4343 23.078C43.7852 22.7781 43.2704 22.3366 42.8898 21.7536C42.5149 21.1707 42.3275 20.4519 42.3275 19.5973C42.3275 18.8615 42.4618 18.2531 42.7304 17.772C42.999 17.2909 43.3655 16.906 43.8299 16.6174C44.2944 16.3287 44.8176 16.1108 45.3996 15.9637C45.9872 15.8109 46.5943 15.7005 47.2211 15.6326C47.9765 15.5533 48.5893 15.4826 49.0593 15.4203C49.5294 15.3524 49.8707 15.2505 50.0834 15.1147C50.3016 14.9732 50.4107 14.7553 50.4107 14.461V14.4101C50.4107 13.7705 50.2232 13.2753 49.8483 12.9244C49.4734 12.5735 48.9334 12.398 48.2283 12.398C47.4841 12.398 46.8937 12.5621 46.4572 12.8904C46.0263 13.2187 45.7353 13.6064 45.5843 14.0535L42.7471 13.646C42.971 12.8536 43.3403 12.1914 43.8551 11.6594C44.37 11.1217 44.9995 10.7199 45.7437 10.4539C46.488 10.1822 47.3106 10.0464 48.2115 10.0464C48.8327 10.0464 49.451 10.12 50.0666 10.2671C50.6821 10.4143 51.2445 10.6576 51.7537 10.9972C52.2629 11.3311 52.6714 11.7868 52.9792 12.3641C53.2926 12.9414 53.4493 13.663 53.4493 14.5289V23.2563H50.5282V21.465H50.4275C50.2428 21.8272 49.9826 22.1668 49.6469 22.4837C49.3167 22.795 48.8998 23.0469 48.3962 23.2393C47.8982 23.4261 47.3134 23.5195 46.6419 23.5195ZM47.4309 21.2612C48.0409 21.2612 48.5697 21.1395 49.0173 20.8962C49.465 20.6471 49.8092 20.3189 50.0498 19.9114C50.296 19.5039 50.4191 19.0596 50.4191 18.5785V17.0419C50.324 17.1211 50.1617 17.1947 49.9323 17.2626C49.7084 17.3305 49.4566 17.3899 49.1768 17.4409C48.897 17.4918 48.62 17.5371 48.3458 17.5767C48.0716 17.6163 47.8338 17.6503 47.6324 17.6786C47.1791 17.7408 46.7734 17.8427 46.4152 17.9842C46.0571 18.1257 45.7745 18.3238 45.5675 18.5785C45.3604 18.8275 45.2569 19.1501 45.2569 19.5463C45.2569 20.1123 45.4612 20.5396 45.8696 20.8283C46.2781 21.1169 46.7986 21.2612 47.4309 21.2612Z" fill="white"/>
  <path d="M62.5623 10.2162V12.5933H54.9407V10.2162H62.5623ZM56.8461 23.2563V8.98516C56.8461 8.1079 57.0252 7.37778 57.3833 6.79483C57.747 6.21187 58.2339 5.77607 58.8438 5.48742C59.4538 5.19877 60.1309 5.05444 60.8751 5.05444C61.4011 5.05444 61.8684 5.09689 62.2769 5.18179C62.6854 5.26669 62.9876 5.34309 63.1834 5.41101L62.5791 7.78812C62.4504 7.7485 62.2881 7.70888 62.0922 7.66926C61.8964 7.62399 61.6781 7.60135 61.4375 7.60135C60.8723 7.60135 60.4722 7.74001 60.2372 8.01734C60.0078 8.28901 59.8931 8.67954 59.8931 9.18892V23.2563H56.8461Z" fill="white"/>
  <path d="M70.9073 10.2162V12.5933H63.4955V10.2162H70.9073ZM65.3254 7.09197H68.3639V19.3341C68.3639 19.7472 68.4255 20.0642 68.5486 20.2849C68.6773 20.5 68.8452 20.6471 69.0522 20.7264C69.2593 20.8056 69.4887 20.8452 69.7405 20.8452C69.9308 20.8452 70.1043 20.8311 70.2609 20.8028C70.4232 20.7745 70.5463 20.749 70.6303 20.7264L71.1423 23.129C70.98 23.1856 70.7478 23.2478 70.4456 23.3157C70.149 23.3837 69.7853 23.4233 69.3544 23.4346C68.5934 23.4572 67.9079 23.3412 67.2979 23.0865C66.688 22.8262 66.2039 22.4243 65.8458 21.881C65.4932 21.3376 65.3198 20.6585 65.3254 19.8435V7.09197Z" fill="white"/>
  <path d="M78.5451 23.511C77.2524 23.511 76.136 23.2393 75.1959 22.696C74.2614 22.147 73.5423 21.3716 73.0387 20.3698C72.5351 19.3624 72.2833 18.1767 72.2833 16.8126C72.2833 15.4713 72.5351 14.294 73.0387 13.2809C73.5479 12.2622 74.2586 11.4698 75.1707 10.9038C76.0829 10.3322 77.1545 10.0464 78.3856 10.0464C79.1802 10.0464 79.93 10.1765 80.6351 10.4369C81.3458 10.6916 81.9725 11.0878 82.5153 11.6255C83.0637 12.1631 83.4946 12.848 83.808 13.68C84.1214 14.5063 84.278 15.4911 84.278 16.6344V17.5767H73.7102V15.5052H81.3654C81.3598 14.9166 81.2339 14.3931 80.9877 13.9346C80.7415 13.4705 80.3973 13.1055 79.9552 12.8395C79.5187 12.5735 79.0095 12.4405 78.4276 12.4405C77.8064 12.4405 77.2608 12.5933 76.7908 12.8989C76.3207 13.1989 75.9542 13.5951 75.6912 14.0875C75.4338 14.5742 75.3022 15.109 75.2966 15.692V17.5003C75.2966 18.2587 75.4338 18.9096 75.708 19.4529C75.9821 19.9906 76.3655 20.4038 76.8579 20.6924C77.3503 20.9754 77.9267 21.1169 78.587 21.1169C79.0291 21.1169 79.4292 21.0547 79.7874 20.9301C80.1455 20.8 80.4561 20.6104 80.7191 20.3613C80.9821 20.1123 81.1807 19.8038 81.315 19.436L84.1521 19.7586C83.9731 20.517 83.6317 21.1792 83.1281 21.7451C82.6301 22.3055 81.9921 22.7413 81.2143 23.0526C80.4365 23.3582 79.5467 23.511 78.5451 23.511Z" fill="white"/>
  <path d="M86.3759 23.2563V10.2162H89.3222V12.3895H89.4565C89.6915 11.6368 90.0944 11.0566 90.6652 10.6491C91.2415 10.236 91.8991 10.0294 92.6377 10.0294C92.8056 10.0294 92.9931 10.0379 93.2001 10.0549C93.4127 10.0662 93.589 10.086 93.7289 10.1143V12.9414C93.6002 12.8961 93.396 12.8565 93.1162 12.8225C92.842 12.7829 92.5762 12.7631 92.3187 12.7631C91.7648 12.7631 91.2667 12.8848 90.8246 13.1281C90.3882 13.3658 90.044 13.6969 89.7922 14.1214C89.5404 14.5459 89.4145 15.0355 89.4145 15.5901V23.2563H86.3759Z" fill="white"/>
  <path d="M104.659 13.1366L102.88 13.646C102.768 13.346 102.603 13.0545 102.384 12.7716C102.172 12.4829 101.881 12.2452 101.512 12.0584C101.142 11.8717 100.669 11.7783 100.093 11.7783C99.3039 11.7783 98.6464 11.9622 98.1204 12.3301C97.6 12.6923 97.3398 13.1536 97.3398 13.7139C97.3398 14.212 97.5188 14.6053 97.877 14.894C98.2351 15.1826 98.7947 15.4232 99.5557 15.6156L101.47 16.091C102.622 16.374 103.481 16.807 104.046 17.3899C104.612 17.9672 104.894 18.7115 104.894 19.6227C104.894 20.3698 104.682 21.0377 104.256 21.6263C103.837 22.2149 103.249 22.679 102.494 23.0186C101.738 23.3582 100.86 23.528 99.8579 23.528C98.5429 23.528 97.4545 23.2393 96.5927 22.662C95.731 22.0847 95.1854 21.2414 94.9559 20.1321L96.8361 19.6567C97.0152 20.3585 97.3538 20.8849 97.8518 21.2358C98.3554 21.5867 99.0129 21.7621 99.8243 21.7621C100.748 21.7621 101.481 21.564 102.024 21.1678C102.572 20.766 102.846 20.2849 102.846 19.7246C102.846 19.2718 102.689 18.8926 102.376 18.587C102.063 18.2757 101.581 18.0436 100.932 17.8908L98.7835 17.3815C97.6028 17.0985 96.7354 16.6598 96.1814 16.0656C95.633 15.4656 95.3588 14.7157 95.3588 13.8158C95.3588 13.08 95.5631 12.4291 95.9716 11.8632C96.3857 11.2972 96.9481 10.8529 97.6587 10.5303C98.375 10.2077 99.1864 10.0464 100.093 10.0464C101.369 10.0464 102.37 10.3294 103.098 10.8953C103.831 11.4613 104.351 12.2084 104.659 13.1366Z" fill="white"/>
  <path d="M109.384 15.4118V23.2563H107.403V5.86945H109.384V12.2537H109.552C109.854 11.5802 110.308 11.0453 110.912 10.6491C111.522 10.2473 112.333 10.0464 113.346 10.0464C114.225 10.0464 114.994 10.2247 115.655 10.5812C116.315 10.9321 116.827 11.4726 117.191 12.2028C117.56 12.9272 117.745 13.8497 117.745 14.9704V23.2563H115.764V15.1062C115.764 14.0705 115.498 13.2696 114.966 12.7036C114.44 12.132 113.71 11.8462 112.775 11.8462C112.126 11.8462 111.544 11.9848 111.03 12.2622C110.52 12.5395 110.117 12.9442 109.821 13.4762C109.53 14.0082 109.384 14.6534 109.384 15.4118Z" fill="white"/>
  <path d="M126.134 23.528C124.97 23.528 123.948 23.2478 123.07 22.6875C122.197 22.1272 121.514 21.3433 121.022 20.3359C120.535 19.3284 120.292 18.1512 120.292 16.8042C120.292 15.4458 120.535 14.2601 121.022 13.247C121.514 12.2339 122.197 11.4472 123.07 10.8869C123.948 10.3265 124.97 10.0464 126.134 10.0464C127.298 10.0464 128.316 10.3265 129.189 10.8869C130.068 11.4472 130.75 12.2339 131.237 13.247C131.73 14.2601 131.976 15.4458 131.976 16.8042C131.976 18.1512 131.73 19.3284 131.237 20.3359C130.75 21.3433 130.068 22.1272 129.189 22.6875C128.316 23.2478 127.298 23.528 126.134 23.528ZM126.134 21.7282C127.018 21.7282 127.745 21.4989 128.316 21.0405C128.887 20.5821 129.309 19.9793 129.583 19.2322C129.858 18.4851 129.995 17.6758 129.995 16.8042C129.995 15.9325 129.858 15.1204 129.583 14.3676C129.309 13.6149 128.887 13.0064 128.316 12.5423C127.745 12.0782 127.018 11.8462 126.134 11.8462C125.249 11.8462 124.522 12.0782 123.951 12.5423C123.38 13.0064 122.958 13.6149 122.684 14.3676C122.41 15.1204 122.272 15.9325 122.272 16.8042C122.272 17.6758 122.41 18.4851 122.684 19.2322C122.958 19.9793 123.38 20.5821 123.951 21.0405C124.522 21.4989 125.249 21.7282 126.134 21.7282Z" fill="white"/>
  <path d="M139.765 23.528C138.601 23.528 137.579 23.2478 136.701 22.6875C135.828 22.1272 135.145 21.3433 134.653 20.3359C134.166 19.3284 133.923 18.1512 133.923 16.8042C133.923 15.4458 134.166 14.2601 134.653 13.247C135.145 12.2339 135.828 11.4472 136.701 10.8869C137.579 10.3265 138.601 10.0464 139.765 10.0464C140.929 10.0464 141.947 10.3265 142.82 10.8869C143.699 11.4472 144.381 12.2339 144.868 13.247C145.361 14.2601 145.607 15.4458 145.607 16.8042C145.607 18.1512 145.361 19.3284 144.868 20.3359C144.381 21.3433 143.699 22.1272 142.82 22.6875C141.947 23.2478 140.929 23.528 139.765 23.528ZM139.765 21.7282C140.649 21.7282 141.376 21.4989 141.947 21.0405C142.518 20.5821 142.94 19.9793 143.214 19.2322C143.489 18.4851 143.626 17.6758 143.626 16.8042C143.626 15.9325 143.489 15.1204 143.214 14.3676C142.94 13.6149 142.518 13.0064 141.947 12.5423C141.376 12.0782 140.649 11.8462 139.765 11.8462C138.88 11.8462 138.153 12.0782 137.582 12.5423C137.011 13.0064 136.589 13.6149 136.315 14.3676C136.041 15.1204 135.903 15.9325 135.903 16.8042C135.903 17.6758 136.041 18.4851 136.315 19.2322C136.589 19.9793 137.011 20.5821 137.582 21.0405C138.153 21.4989 138.88 21.7282 139.765 21.7282Z" fill="white"/>
  <path d="M153.765 10.2162V11.9141H147.083V10.2162H153.765ZM149.031 7.09197H151.012V19.5209C151.012 20.0868 151.093 20.5113 151.255 20.7943C151.423 21.0716 151.636 21.2584 151.893 21.3546C152.156 21.4452 152.433 21.4905 152.724 21.4905C152.942 21.4905 153.121 21.4791 153.261 21.4565C153.401 21.4282 153.513 21.4056 153.597 21.3886L154 23.1884C153.866 23.2393 153.678 23.2903 153.438 23.3412C153.197 23.3978 152.892 23.4261 152.523 23.4261C151.963 23.4261 151.415 23.3044 150.877 23.061C150.346 22.8177 149.904 22.447 149.551 21.9489C149.204 21.4508 149.031 20.8226 149.031 20.0642V7.09197Z" fill="white"/>
</svg>