<svg xmlns="http://www.w3.org/2000/svg" width="35" height="24" viewBox="0 0 35 24" fill="none">
<rect x="0.819824" y="0.5" width="33" height="23" rx="3.5" fill="#1F72CD"/>
<rect x="0.819824" y="0.5" width="33" height="23" rx="3.5" stroke="#F2F2F2"/>
<path fill-rule="evenodd" clip-rule="evenodd" d="M6.415 8.5L3.23389 15.7467H7.04212L7.51423 14.5913H8.59337L9.06548 15.7467H13.2573V14.8649L13.6308 15.7467H15.7991L16.1726 14.8462V15.7467H24.8904L25.9505 14.6213L26.9431 15.7467L31.4207 15.7561L28.2295 12.1436L31.4207 8.5H27.0125L25.9806 9.60463L25.0193 8.5H15.5355L14.7211 10.3704L13.8876 8.5H10.0873V9.35186L9.66456 8.5H6.415ZM7.15187 9.52905H9.00818L11.1182 14.4431V9.52905H13.1517L14.7815 13.0524L16.2835 9.52905H18.3068V14.7291H17.0757L17.0656 10.6544L15.2707 14.7291H14.1694L12.3644 10.6544V14.7291H9.83161L9.35145 13.5633H6.75727L6.27809 14.728H4.92105L7.15187 9.52905ZM24.4394 9.52905H19.4332V14.726H24.3619L25.9505 13.0036L27.4816 14.726H29.0822L26.7558 12.1426L29.0822 9.52905H27.5511L25.9706 11.2316L24.4394 9.52905ZM8.0549 10.4089L7.20022 12.4856H8.90859L8.0549 10.4089ZM20.6695 11.555V10.6057V10.6048H23.7932L25.1562 12.1229L23.7328 13.6493H20.6695V12.613H23.4006V11.555H20.6695Z" fill="#F2F2F2"/>
</svg>